<?xml version="1.0" standalone="no"?>
<!DOCTYPE svg PUBLIC "-//W3C//DTD SVG 20010904//EN"
 "http://www.w3.org/TR/2001/REC-SVG-20010904/DTD/svg10.dtd">
<svg version="1.0" xmlns="http://www.w3.org/2000/svg"
 width="1739.000000pt" height="1739.000000pt" viewBox="0 0 1739.000000 1739.000000"
 preserveAspectRatio="xMidYMid meet">
<metadata>
Created by potrace 1.11, written by Peter Selinger 2001-2013
</metadata>
<g transform="translate(0.000000,1739.000000) scale(0.100000,-0.100000)"
fill="#000000" stroke="none">
<path d="M9469 16906 c-2 -2 -44 -7 -94 -10 -125 -10 -363 -44 -462 -66 -177
-41 -363 -92 -493 -137 -125 -42 -284 -104 -358 -138 -29 -14 -55 -25 -58 -25
-3 0 -93 -43 -200 -95 -107 -53 -223 -103 -257 -111 -84 -22 -166 -14 -307 29
-184 56 -274 70 -455 70 -136 0 -178 -4 -279 -27 -247 -55 -456 -162 -736
-375 -302 -231 -573 -517 -795 -840 -60 -89 -165 -258 -165 -267 0 -3 -8 -18
-19 -32 -10 -15 -40 -67 -66 -117 -76 -143 -172 -281 -256 -370 -26 -27 -58
-61 -71 -75 -40 -43 -169 -154 -278 -239 -58 -45 -112 -88 -120 -94 -280 -223
-982 -698 -1483 -1003 -53 -32 -118 -72 -145 -88 -26 -16 -67 -40 -92 -54 -25
-13 -53 -32 -64 -41 -22 -19 -46 -72 -46 -101 l0 -22 33 20 c17 10 109 64 202
118 94 54 242 143 330 198 88 54 170 104 182 110 13 6 23 14 23 19 0 4 4 7 10
7 5 0 26 11 47 25 21 14 45 30 53 35 8 5 69 45 135 88 66 43 168 109 228 147
59 39 169 111 245 160 128 83 272 177 332 214 l25 16 -25 -35 c-71 -101 -445
-566 -541 -675 -15 -16 -49 -55 -75 -86 -222 -255 -531 -568 -749 -758 -66
-58 -126 -110 -134 -117 -12 -11 -12 -17 3 -39 l17 -26 272 139 c150 77 421
215 602 307 182 92 377 192 434 222 100 52 105 53 121 36 20 -20 38 42 -219
-738 -71 -214 -206 -626 -301 -915 -94 -289 -185 -563 -200 -610 -16 -47 -114
-346 -219 -665 -104 -319 -217 -663 -250 -764 -34 -102 -60 -186 -58 -187 2
-2 18 -10 37 -17 l34 -15 44 72 c25 39 53 83 63 98 11 15 19 30 19 33 0 3 9
18 19 33 10 15 126 203 256 417 131 215 243 395 249 402 7 7 19 8 32 3 19 -8
21 -13 14 -57 -4 -26 -11 -68 -14 -93 -3 -25 -8 -56 -10 -70 -2 -14 -7 -47
-11 -75 -14 -109 -16 -121 -21 -147 -5 -27 -10 -60 -19 -138 -3 -25 -7 -54 -9
-65 -2 -11 -7 -45 -11 -75 -8 -67 -12 -92 -20 -150 -12 -81 -14 -94 -20 -150
-3 -30 -8 -66 -10 -80 -2 -14 -7 -47 -10 -75 -6 -58 -13 -115 -20 -165 -3 -19
-8 -62 -11 -95 -3 -33 -8 -68 -10 -79 -2 -10 -6 -53 -9 -95 -3 -42 -8 -83 -10
-91 -2 -8 -7 -55 -11 -105 -3 -49 -8 -92 -9 -95 -2 -3 -6 -52 -10 -110 -4 -58
-8 -112 -10 -120 -2 -8 -6 -71 -10 -140 -4 -69 -9 -143 -10 -165 -4 -39 -15
-311 -19 -447 -1 -38 1 -68 5 -68 4 0 40 60 80 133 40 72 83 152 97 177 22 40
240 456 429 820 100 192 156 297 208 390 25 46 45 84 45 86 0 1 15 29 34 61
56 96 96 166 113 201 9 17 19 32 22 32 3 0 21 -53 40 -118 108 -369 178 -551
305 -787 6 -11 45 -70 87 -130 90 -130 130 -201 174 -311 57 -141 109 -347
135 -539 18 -133 20 -147 25 -169 2 -12 6 -39 9 -61 9 -69 26 -180 41 -255 3
-13 7 -40 10 -60 3 -20 8 -47 10 -60 5 -23 28 -138 40 -200 2 -14 7 -36 10
-50 3 -14 8 -43 11 -65 6 -44 26 -81 58 -106 19 -16 22 -16 30 -2 21 39 49
131 62 208 21 126 77 305 94 305 5 0 14 -19 20 -41 6 -23 15 -49 20 -58 8 -17
50 -146 125 -386 102 -325 177 -532 262 -722 25 -57 48 -101 52 -99 4 3 17 25
30 51 21 43 23 57 23 240 0 184 1 195 18 195 24 0 35 -21 45 -80 12 -74 15
-89 30 -154 8 -33 16 -72 19 -86 11 -60 67 -323 86 -405 12 -49 23 -97 25
-105 4 -21 64 -251 72 -274 5 -19 7 -19 25 4 28 34 67 115 118 243 37 94 110
227 125 227 2 0 3 -233 0 -517 -6 -786 -16 -903 -90 -1036 -35 -61 -137 -156
-270 -249 -61 -43 -115 -81 -120 -85 -6 -4 -53 -37 -105 -72 -52 -36 -97 -68
-100 -71 -9 -10 -282 -206 -363 -259 -199 -132 -349 -206 -577 -286 -36 -12
-130 -46 -210 -74 -80 -29 -170 -61 -200 -72 -332 -119 -816 -269 -1088 -338
-102 -26 -420 -96 -482 -106 -61 -10 -79 -13 -98 -19 -9 -3 -39 -7 -67 -11
-27 -3 -61 -8 -75 -10 -14 -2 -47 -6 -75 -10 -27 -3 -61 -8 -75 -10 -14 -2
-52 -6 -85 -10 -33 -3 -78 -8 -100 -10 -22 -3 -78 -7 -124 -10 -254 -15 -515
-89 -731 -207 -79 -43 -238 -151 -280 -190 -14 -13 -51 -42 -82 -66 -62 -46
-74 -77 -44 -118 14 -19 105 -19 7753 -20 6411 -2 7742 0 7764 11 62 32 60 41
-27 124 -100 95 -108 101 -210 168 -206 134 -546 255 -809 288 -27 3 -61 8
-75 10 -14 2 -61 6 -105 10 -188 14 -297 27 -405 45 -63 12 -50 9 -245 50 -82
17 -161 33 -175 36 -82 16 -394 94 -565 141 -110 30 -213 59 -230 63 -74 18
-526 174 -666 230 -394 157 -745 329 -1019 499 -45 28 -84 51 -86 51 -5 0
-274 182 -324 219 -71 53 -255 195 -260 201 -3 3 -18 16 -35 29 -59 45 -118
106 -131 136 -46 112 -64 958 -29 1435 10 146 18 267 17 282 -2 40 15 14 37
-54 36 -118 102 -328 125 -403 12 -38 49 -157 82 -262 59 -192 59 -193 87
-191 16 1 32 7 36 13 19 24 107 303 117 370 3 17 7 37 10 45 7 19 41 203 49
260 3 25 8 56 10 70 2 14 6 50 10 80 3 30 8 71 10 90 6 50 13 123 20 210 3 41
8 95 10 120 2 25 7 83 10 130 4 47 8 96 10 110 2 14 6 61 10 105 3 44 7 96 10
115 2 19 7 60 10 90 3 30 7 64 10 75 2 11 4 35 4 53 1 28 4 32 29 32 21 0 30
-7 38 -28 6 -15 55 -135 109 -267 54 -132 137 -337 185 -455 81 -202 88 -215
112 -216 41 -2 47 7 52 81 18 236 26 1357 13 1896 l-2 117 70 -1 c78 -1 119
16 212 84 29 22 56 39 61 39 7 0 96 -131 112 -165 18 -38 271 -401 289 -415 4
-3 14 -15 23 -28 17 -25 132 -156 161 -183 26 -24 79 -5 72 26 -5 20 -54 235
-60 265 -2 8 -19 85 -39 170 -19 85 -34 156 -32 157 3 4 155 -154 276 -287
390 -428 572 -590 859 -764 11 -7 12 5 6 70 -3 43 -8 81 -9 84 -2 3 -7 37 -10
76 -4 39 -8 81 -11 92 -2 12 -6 47 -10 79 -6 59 -23 203 -30 258 -5 36 -13
102 -20 170 -5 46 -9 77 -20 160 -3 17 -12 93 -20 170 -9 77 -17 151 -20 165
-2 14 -6 50 -10 80 -3 30 -7 69 -9 85 -2 17 -7 59 -11 95 -4 36 -9 73 -10 82
-2 9 -6 45 -10 80 -3 35 -8 74 -10 88 -3 14 -7 50 -10 80 -3 30 -7 64 -9 75
-2 12 -7 51 -10 87 -4 37 -8 75 -10 85 -2 10 -7 49 -10 85 -4 37 -8 75 -10 85
-2 10 -7 48 -10 85 -4 37 -9 77 -11 90 -4 23 -9 63 -20 173 -4 33 -8 71 -11
85 -2 14 -6 52 -10 85 -3 33 -7 71 -10 85 -2 14 -6 49 -10 78 -5 48 -4 52 14
52 12 0 23 -4 26 -9 3 -4 19 -73 36 -152 36 -169 80 -368 85 -389 2 -8 13 -58
24 -110 21 -100 79 -366 111 -510 10 -47 21 -96 24 -110 4 -20 79 -365 91
-420 7 -31 177 -806 181 -825 3 -17 11 -53 20 -87 1 -5 2 -15 3 -23 2 -25 18
-17 41 20 24 39 30 75 18 125 -12 50 -81 370 -114 525 -2 11 -7 34 -10 50 -2
17 -9 46 -14 65 -5 19 -12 49 -14 65 -3 17 -13 62 -21 100 -16 74 -52 243 -59
279 -3 11 -16 75 -31 141 -15 66 -29 131 -31 145 -3 14 -10 45 -15 70 -6 25
-13 55 -15 68 -3 13 -15 74 -29 135 -13 62 -26 123 -29 137 -2 14 -21 102 -41
195 -20 94 -38 179 -40 189 -21 100 -58 270 -66 306 -5 25 -11 54 -14 65 -4
22 -34 158 -41 190 -3 11 -9 40 -14 65 -5 25 -23 110 -40 190 -17 80 -40 188
-51 240 -11 52 -22 102 -24 110 -2 8 -11 53 -20 100 -10 47 -22 96 -27 110 -5
13 -6 21 -2 17 4 -4 16 0 26 10 10 9 20 14 21 12 8 -10 48 -82 92 -164 76
-143 116 -218 135 -250 9 -16 39 -70 65 -120 26 -49 60 -112 75 -140 15 -27
63 -117 108 -200 44 -82 99 -184 122 -225 22 -41 50 -94 61 -117 12 -24 24
-43 28 -43 12 0 41 69 41 97 0 15 -15 72 -34 128 -19 55 -67 201 -106 325
-183 572 -545 1659 -668 2005 -33 94 -81 226 -105 295 -37 104 -156 413 -186
485 -5 11 -16 36 -24 55 -8 19 -18 46 -22 60 -4 14 -16 43 -26 65 -68 149
-191 541 -223 709 -4 18 -57 221 -102 386 -9 30 -51 161 -94 290 -209 625
-475 1176 -813 1685 -156 234 -212 303 -302 370 -22 16 -42 32 -45 35 -3 3
-45 31 -95 62 -485 302 -1015 513 -1502 598 -159 28 -150 27 -229 35 -38 4
-80 9 -94 11 -30 6 -535 15 -541 10z"/>
</g>
</svg>
